# xmcd CD database file
#
# Track frame offsets:
#	150
#	17299
#	38839
#	55260
#	81735
#	94568
#	130638
#	153437
#	180443
#	212112
#	244128
#	263918
#
# Disc length: 3859 seconds
#
# Revision: 0
# Processed by: cddbd v1.5.1PL2 Copyright (c) Steve Scherf et al.
# Submitted via: CDex 1.51
#
DISCID=960f110c
DTITLE=Casbah - Russian Roulette〜No Posers Allowed 1985-1994 Disk1
DYEAR=2005
DGENRE=Trash Metal
TTITLE0=Impure
TTITLE1=March Of The Final Decade
TTITLE2=Gun Crazy
TTITLE3=Swan Song
TTITLE4=Kids On The Skids
TTITLE5=So Many Ways
TTITLE6=Out Of Wreck Age
TTITLE7=The Cloning
TTITLE8=The One's Left Behind
TTITLE9=Word Known As History
TTITLE10=Discharge
TTITLE11=Bone Head
EXTD=YEAR: 2005
EXTT0=
EXTT1=
EXTT2=
EXTT3=
EXTT4=
EXTT5=
EXTT6=
EXTT7=
EXTT8=
EXTT9=
EXTT10=
EXTT11=
PLAYORDER=
